<?xml version="1.0" encoding="utf-8"?>
<!-- Generator: Adobe Illustrator 25.2.0, SVG Export Plug-In . SVG Version: 6.00 Build 0)  -->
<svg version="1.0" id="Capa_1" xmlns="http://www.w3.org/2000/svg" xmlns:xlink="http://www.w3.org/1999/xlink" x="0px" y="0px"
	 viewBox="0 0 117.9 16" enable-background="new 0 0 117.9 16" xml:space="preserve">
<g>
	<path d="M62.4,11.5c0-2.3,0-4.5,0-6.8c0.9,0,1.7,0,2.5,0c0,0.3,0,0.6,0,0.8c0.3,0,0.6,0,0.8,0c0,0.1,0,2.4,0,2.5
		c-0.3,0-0.5,0-0.8,0c0,0.3,0,0.6,0,0.8c0.3,0,0.5,0,0.8,0c0,0.1,0,1.5,0,1.7c-0.3,0-0.5,0-0.8,0c0,0.3,0,0.6,0,0.8
		C64.1,11.5,63.2,11.5,62.4,11.5z M63.2,5.6c0,0.2,0,2.4,0,2.5c0.2,0,1.6,0,1.7,0c0-0.2,0-2.4,0-2.5C64.3,5.6,63.8,5.6,63.2,5.6z
		 M64.9,9c-0.6,0-1.1,0-1.7,0c0,0.6,0,1.1,0,1.7c0.6,0,1.1,0,1.7,0C64.9,10.1,64.9,9.5,64.9,9z"/>
	<path d="M29.3,11.5c0-0.3,0-0.5,0-0.8c0.2,0,0.4,0,0.5,0c0.2,0,0.4,0,0.5,0s0.4,0,0.5,0s0.4,0,0.5,0c0.2,0,0.3,0,0.5,0
		c0.2,0,0.4,0,0.5,0c0.2,0,0.4,0,0.5,0c0.2,0,0.4,0,0.5,0c0-0.1,0-4,0-4.2c-1.4,0-2.8,0-4.2,0c0-0.3,0-0.6,0-0.8c0.1,0,4.9,0,5.1,0
		c0,0,0,0.1,0,0.2c0,1.9,0,3.7,0,5.6c0,0.1,0,0.1,0,0.2C32.7,11.5,31,11.5,29.3,11.5z"/>
	<path d="M112.4,5.6c0.2,0,0.5,0,0.7,0c0.1,0,0.1,0,0.2,0c0,0.6,0,1.1,0,1.7c0.3,0,0.6,0,0.8,0c0,1.4,0,2.8,0,4.2
		c-0.3,0-0.6,0-0.9,0c0,0,0-0.1,0-0.1c0-0.8,0-1.5,0-2.3c0,0,0-0.1,0-0.1c-0.2,0-2.4,0-2.5,0c0,0,0,0.1,0,0.1c0,0.8,0,1.6,0,2.4
		c-0.3,0-0.6,0-0.9,0c0-0.1,0-0.1,0-0.2c0-1.3,0-2.6,0-3.9c0-0.1,0-0.1,0-0.1c0,0,0,0,0,0c0.3,0,0.5,0,0.8,0l0,0c0,0.3,0,0.6,0,0.8
		c0.9,0,1.7,0,2.5,0c0-0.3,0-0.6,0-0.8c-0.3,0-0.6,0-0.8,0C112.4,6.7,112.4,6.1,112.4,5.6L112.4,5.6z"/>
	<path d="M86.1,11.5c0-0.1,0-0.1,0-0.2c0-1.9,0-3.7,0-5.6c0-0.1,0-0.1,0-0.2c-0.3,0-0.6,0-0.9,0c-0.3,0-0.6,0-0.8,0
		c0-0.3,0-0.6,0-0.8c1.4,0,2.8,0,4.2,0c0,0.3,0,0.6,0,0.8c-0.6,0-1.1,0-1.7,0c0,0.1,0,0.1,0,0.2c0,1.9,0,3.7,0,5.6
		c0,0.1,0,0.1,0,0.2C86.7,11.5,86.4,11.5,86.1,11.5z"/>
	<path d="M47.1,8.1c0,0-0.1,0-0.1,0c-0.5,0-0.9,0-1.4,0c0,0-0.1,0-0.2,0c0,0.1,0,0.1,0,0.1c0,1,0,2.1,0,3.1c0,0,0,0.1,0,0.1
		c-0.3,0-0.6,0-0.8,0c0,0,0-0.1,0-0.1c0-2.2,0-4.3,0-6.5c0,0,0-0.1,0-0.2c0.3,0,0.6,0,0.8,0c0,0.8,0,1.7,0,2.5c0.1,0,0.1,0,0.1,0
		c0.5,0,1,0,1.4,0c0,0,0.1,0,0.1,0c0,0,0,0,0,0C47.1,7.6,47.1,7.8,47.1,8.1C47.1,8.1,47.1,8.1,47.1,8.1z"/>
	<path d="M6.4,9.8c0-0.1,0-0.2,0-0.4c0-0.4,0-0.8,0-1.2c0,0,0-0.1,0-0.1c-0.1,0-0.1,0-0.2,0c-0.7,0-1.5,0-2.2,0c-0.1,0-0.1,0-0.2,0
		c0-0.3,0-0.6,0-0.8c0.1,0,0.1,0,0.2,0c1.9,0,3.7,0,5.6,0c0.1,0,0.1,0,0.2,0c0,0.3,0,0.6,0,0.8c-0.8,0-1.7,0-2.5,0
		c0,0.1,0,0.3,0,0.4c0,0.1,0,0.3,0,0.4c0,0.1,0,0.3,0,0.4c0,0.1,0,0.3,0,0.4C6.9,9.8,6.7,9.8,6.4,9.8z"/>
	<path d="M98,10.7c0,0,0.1,0,0.1,0c0.5,0,0.9,0,1.4,0c0,0,0.1,0,0.1,0c0-0.2,0-0.4,0-0.5c0-0.2,0-0.4,0-0.5c0-0.2,0-0.4,0-0.5
		c0-0.2,0-0.4,0-0.5c0-0.2,0-0.4,0-0.5c0-0.2,0-0.4,0-0.5s0-0.4,0-0.5s0-0.4,0-0.5c0-0.2,0-0.4,0-0.5c0-0.2,0-0.4,0-0.5
		c0-0.2,0-0.4,0-0.5c0.3,0,0.6,0,0.8,0c0,2,0,3.9,0,5.9c-0.3,0-0.5,0-0.8,0c0,0.3,0,0.6,0,0.8c-0.6,0-1.1,0-1.7,0
		C98,11.2,98,10.9,98,10.7C98,10.7,98,10.7,98,10.7z"/>
	<path d="M70.9,7.3c0,0,0,0.1,0,0.1c0,1.4,0,2.7,0,4.1c-0.3,0-0.6,0-0.9,0c0,0,0-0.1,0-0.1c0-1.3,0-2.6,0-3.9c0,0,0-0.1,0-0.1
		c-0.3,0-0.6,0-0.8,0c0-0.2,0-0.3,0-0.4c0-0.1,0-0.3,0-0.4l0,0c0.3,0,0.6,0,0.8,0c0,0.3,0,0.6,0,0.8c0,0,0.1,0,0.1,0
		c0.2,0,0.4,0,0.6,0C70.8,7.3,70.8,7.3,70.9,7.3C70.9,7.3,70.9,7.3,70.9,7.3z"/>
	<path d="M17.4,7.3c0,0,0,0.1,0,0.1c0,1.3,0,2.6,0,3.9c0,0,0,0.1,0,0.1c-0.3,0-0.6,0-0.9,0c0,0,0-0.1,0-0.1c0-0.8,0-1.5,0-2.3
		c0,0,0-0.1,0-0.1c0,0,0,0-0.1,0c-0.2,0-0.5,0-0.7,0c0,0,0,0-0.1,0l0,0c0-0.2,0-0.4,0-0.5c0-0.1,0-0.2,0-0.3c0.3,0,0.6,0,0.8,0
		c0-0.3,0-0.6,0-0.8c0,0,0.1,0,0.1,0C16.9,7.3,17.1,7.3,17.4,7.3C17.4,7.3,17.4,7.3,17.4,7.3C17.4,7.3,17.4,7.3,17.4,7.3z"/>
	<path d="M105.6,7.3c0,0.6,0,1.2,0,1.8c0,0.8,0,1.5,0,2.3c0,0,0,0.1,0,0.1c-0.3,0-0.6,0-0.8,0c0,0,0-0.1,0-0.1c0-1.3,0-2.7,0-4
		c0,0,0-0.1,0-0.1c0,0,0,0,0,0C105.1,7.3,105.3,7.3,105.6,7.3C105.6,7.3,105.6,7.3,105.6,7.3z"/>
	<path d="M79.3,9c0,0.3,0,0.5,0,0.8c-0.1,0-0.3,0-0.4,0c-0.1,0-0.3,0-0.4,0c0,0,0,0.1,0,0.1c0,0.5,0,1,0,1.5c0,0,0,0,0,0.1
		c-0.3,0-0.6,0-0.9,0c0-0.6,0-1.1,0-1.7c0.3,0,0.6,0,0.8,0c0-0.3,0-0.6,0-0.8C78.8,9,79.1,9,79.3,9z"/>
	<path d="M93.7,10.7c0,0.3,0,0.6,0,0.8c-0.6,0-1.1,0-1.7,0c0-0.3,0-0.5,0-0.8c-0.3,0-0.5,0-0.8,0c0-0.3,0-0.6,0-0.8
		c0.3,0,0.6,0,0.8,0c0,0.1,0,0.3,0,0.4c0,0.1,0,0.3,0,0.4c0.1,0,0.1,0,0.1,0c0.5,0,0.9,0,1.4,0C93.7,10.7,93.7,10.7,93.7,10.7
		C93.7,10.7,93.7,10.7,93.7,10.7z"/>
	<path d="M25.9,11.5c0-0.6,0-1.1,0-1.7c0.3,0,0.6,0,0.9,0c0,0.1,0,0.1,0,0.2c0,0.5,0,0.9,0,1.4c0,0,0,0.1,0,0.1
		C26.5,11.5,26.2,11.5,25.9,11.5z"/>
	<path d="M81,11.5c0-0.6,0-1.1,0-1.7c0.3,0,0.6,0,0.9,0c0,0.1,0,0.1,0,0.2c0,0.5,0,0.9,0,1.4c0,0,0,0.1,0,0.1
		C81.6,11.5,81.3,11.5,81,11.5z"/>
	<path d="M22.5,10.7c0,0.3,0,0.6,0,0.8c-0.3,0-0.6,0-0.9,0c0-0.2,0-0.5,0-0.7c0,0,0-0.1,0-0.1C21.9,10.7,22.2,10.7,22.5,10.7z"/>
	<path d="M4.7,11.5c0-0.3,0-0.5,0-0.8c0.1,0,0.6,0,0.8,0c0,0.3,0,0.6,0,0.8C5.3,11.5,5,11.5,4.7,11.5z"/>
	<path d="M98,10.7c-0.3,0-0.6,0-0.9,0c0-2,0-4,0-5.9c0,0,0,0,0.1,0c0.3,0,0.5,0,0.8,0c0,0.1,0,0.1,0,0.1c0,0.9,0,1.8,0,2.7
		c0,1,0,1.9,0,2.9C98,10.6,98,10.6,98,10.7C98,10.7,98,10.7,98,10.7z"/>
	<path d="M25.9,6.4c0-0.3,0-0.5,0-0.8c-1.4,0-2.8,0-4.2,0c0-0.3,0-0.6,0-0.8c1.7,0,3.4,0,5.1,0c0,0.1,0,1.5,0,1.7
		C26.4,6.4,26.2,6.4,25.9,6.4C25.9,6.4,25.9,6.4,25.9,6.4z"/>
	<path d="M36.9,8.1c0-0.3,0-0.6,0-0.8c1.7,0,3.4,0,5.1,0c0,0.3,0,0.5,0,0.8C40.3,8.1,38.6,8.1,36.9,8.1z"/>
	<path d="M8.9,4.7c0,0.3,0,0.6,0,0.8c-1.4,0-2.8,0-4.2,0c0-0.3,0-0.6,0-0.8C6.1,4.7,7.5,4.7,8.9,4.7z"/>
	<path d="M92,8.1c0.2,0,0.4,0,0.6,0c0.3,0,0.7,0,1,0c0,0,0.1,0,0.1,0c0,0.3,0,0.6,0,0.8c0.3,0,0.6,0,0.8,0c0,0.6,0,1.1,0,1.7
		c-0.3,0-0.6,0-0.8,0c0,0,0,0,0,0c0-0.6,0-1.1,0-1.7c-0.1,0-0.3,0-0.4,0c-0.1,0-0.3,0-0.4,0c-0.1,0-0.3,0-0.4,0c-0.1,0-0.3,0-0.4,0
		c0,0,0-0.1,0-0.1c0-0.2,0-0.4,0-0.6C92.1,8.2,92,8.2,92,8.1C92,8.1,92,8.1,92,8.1z"/>
	<path d="M81,9.8c-0.3,0-0.6,0-0.8,0c0-0.3,0-0.6,0-0.8c-0.3,0-0.6,0-0.8,0c0-0.5,0-1,0-1.6c0,0,0-0.1,0-0.1c0,0,0,0,0,0
		c0,0,0.1,0,0.1,0c0.2,0,0.4,0,0.6,0c0,0,0.1,0,0.1,0c0-0.3,0-0.6,0-0.8c0.3,0,0.6,0,0.9,0l0,0c0,0.3,0,0.6,0,0.9
		c-0.3,0-0.6,0-0.8,0c0,0.1,0,1.6,0,1.7c0.3,0,0.5,0,0.8,0C81,9.3,81,9.5,81,9.8z"/>
	<path d="M25.9,9.8c-0.3,0-0.6,0-0.8,0c0-0.3,0-0.6,0-0.8c-0.3,0-0.6,0-0.8,0c0-0.3,0-0.6,0-0.9c0.3,0,0.6,0,0.8,0
		c0-0.2,0-0.4,0-0.6c0-0.2,0-0.4,0-0.6c0-0.2,0-0.4,0-0.6c0.3,0,0.6,0,0.9,0c0,0,0,0,0,0c0,0.5,0,1.1,0,1.6c0,0,0,0,0,0.1
		c-0.3,0-0.5,0-0.8,0c0,0.3,0,0.6,0,0.8c0.3,0,0.6,0,0.8,0C25.9,9.3,25.9,9.5,25.9,9.8z"/>
	<path d="M70.9,7.3C70.9,7.3,70.9,7.3,70.9,7.3c0-0.3,0-0.6,0-0.9c0.3,0,0.6,0,0.8,0c0-0.3,0-0.6,0-0.9c0-0.3,0-0.6,0-0.8
		c0.3,0,0.6,0,0.8,0c0,0.1,0,1.5,0,1.7c-0.3,0-0.5,0-0.8,0c0,0.3,0,0.6,0,0.8c0,0-0.1,0-0.1,0c-0.2,0-0.4,0-0.6,0
		C70.9,7.3,70.9,7.3,70.9,7.3C70.9,7.3,70.9,7.3,70.9,7.3z"/>
	<path d="M110.7,7.3c0-0.6,0-1.1,0-1.7c0.3,0,0.6,0,0.8,0c0-0.3,0-0.6,0-0.8c0.3,0,0.6,0,0.8,0c0,0.3,0,0.6,0,0.9l0,0
		c-0.3,0-0.6,0-0.8,0c0,0.1,0,0.3,0,0.4c0,0.1,0,0.3,0,0.4c0,0.1,0,0.3,0,0.4c0,0.1,0,0.3,0,0.4C111.3,7.3,111,7.3,110.7,7.3
		L110.7,7.3z"/>
	<path d="M79.3,7.3c0,0-0.1,0-0.1,0c-0.2,0-0.4,0-0.6,0c0,0-0.1,0-0.1,0c0-0.3,0-0.6,0-0.8c-0.3,0-0.6,0-0.8,0c0-0.6,0-1.1,0-1.7
		c0.3,0,0.6,0,0.8,0c0,0.6,0,1.1,0,1.7c0.3,0,0.6,0,0.8,0c0,0,0,0,0,0.1C79.3,6.7,79.3,7,79.3,7.3C79.3,7.3,79.3,7.3,79.3,7.3
		C79.3,7.3,79.3,7.3,79.3,7.3z"/>
	<path d="M92,5.6c0-0.3,0-0.6,0-0.9c0.6,0,1.1,0,1.7,0c0,0.3,0,0.6,0,0.8c0.3,0,0.6,0,0.8,0c0,0.3,0,0.6,0,0.8c-0.3,0-0.6,0-0.8,0
		c0-0.3,0-0.5,0-0.8C93.2,5.6,92.6,5.6,92,5.6L92,5.6z"/>
	<path d="M92,5.6c0,0,0,0.1,0,0.1c0,0.8,0,1.5,0,2.3c0,0,0,0.1,0,0.1c0,0,0,0,0,0c-0.3,0-0.5,0-0.8,0c0-0.8,0-1.7,0-2.5
		c0,0,0.1,0,0.1,0C91.6,5.6,91.8,5.6,92,5.6C92,5.6,92,5.6,92,5.6z"/>
	<path d="M17.4,7.3c0-0.1,0-0.1,0-0.2c0-0.2,0-0.3,0-0.5c0,0,0-0.1,0-0.1c0.6,0,1.1,0,1.7,0c0,0.3,0,0.6,0,0.8c0,0-0.1,0-0.1,0
		c-0.5,0-0.9,0-1.4,0C17.5,7.3,17.5,7.3,17.4,7.3C17.4,7.3,17.4,7.3,17.4,7.3z"/>
	<path d="M48.8,5.6c0.3,0,0.6,0,0.8,0c0,0.1,0,1.5,0,1.7c-0.3,0-0.6,0-0.8,0C48.8,6.7,48.8,6.2,48.8,5.6z"/>
	<path d="M47.1,7.3c0-0.5,0-0.9,0-1.4c0-0.1,0-0.2,0-0.3c0.1,0,0.7,0,0.8,0c0,0.6,0,1.1,0,1.7C47.7,7.3,47.4,7.3,47.1,7.3
		C47.1,7.3,47.1,7.3,47.1,7.3z"/>
	<path d="M9.8,6.4c0-0.6,0-1.1,0-1.7c0.3,0,0.6,0,0.8,0c0,0.1,0,1.5,0,1.7C10.3,6.4,10.1,6.4,9.8,6.4z"/>
	<path d="M11.5,4.7c0.3,0,0.6,0,0.8,0c0,0.6,0,1.1,0,1.7c-0.1,0-0.6,0-0.8,0C11.5,5.9,11.5,5.3,11.5,4.7z"/>
	<path d="M69.2,6.4c-0.1,0-0.3,0-0.4,0c-0.1,0-0.3,0-0.4,0c0-0.1,0-1.5,0-1.7c0.3,0,0.5,0,0.8,0C69.2,5.3,69.2,5.9,69.2,6.4
		C69.2,6.4,69.2,6.4,69.2,6.4z"/>
	<path d="M81,6.4c0-0.6,0-1.1,0-1.7c0.3,0,0.6,0,0.8,0c0,0.1,0,1.5,0,1.7c0,0,0,0-0.1,0C81.6,6.4,81.3,6.4,81,6.4
		C81.1,6.4,81,6.4,81,6.4C81,6.4,81,6.4,81,6.4z"/>
	<path d="M24.2,9c0,0.3,0,0.5,0,0.8c-0.3,0-0.6,0-0.9,0c0,0.3,0,0.6,0,0.9c-0.3,0-0.6,0-0.8,0c0-0.3,0-0.6,0-0.9c0.3,0,0.6,0,0.8,0
		c0-0.3,0-0.6,0-0.8C23.6,9,23.9,9,24.2,9z"/>
	<path d="M106.5,6.4C106.5,6.4,106.5,6.4,106.5,6.4c0-0.6,0-1.1,0-1.6c0,0,0-0.1,0-0.1c0.3,0,0.5,0,0.8,0c0,0.6,0,1.1,0,1.7
		c-0.1,0-0.3,0-0.4,0C106.8,6.4,106.6,6.4,106.5,6.4C106.5,6.4,106.5,6.4,106.5,6.4z"/>
	<path d="M103.9,6.4c-0.3,0-0.6,0-0.8,0c0-0.6,0-1.1,0-1.7c0.3,0,0.5,0,0.8,0c0,0,0,0.1,0,0.1C103.9,5.3,103.9,5.9,103.9,6.4
		C103.9,6.4,103.9,6.4,103.9,6.4C103.9,6.4,103.9,6.4,103.9,6.4z"/>
	<path d="M103.9,6.4c0.3,0,0.6,0,0.9,0c0,0.3,0,0.6,0,0.9c0,0,0,0,0,0c-0.3,0-0.6,0-0.9,0C103.9,7,103.9,6.7,103.9,6.4
		C103.9,6.4,103.9,6.4,103.9,6.4z"/>
	<path d="M106.5,6.4c0,0.2,0,0.5,0,0.7c0,0,0,0.1,0,0.1c-0.3,0-0.6,0-0.9,0c0,0,0,0,0,0c0-0.3,0-0.6,0-0.9
		C105.9,6.4,106.2,6.4,106.5,6.4C106.5,6.4,106.5,6.4,106.5,6.4z"/>
	<path d="M48,9c-0.3,0-0.6,0-0.9,0c0-0.3,0-0.6,0-0.9c0,0,0,0,0,0c0.3,0,0.6,0,0.9,0C47.9,8.4,47.9,8.7,48,9L48,9z"/>
	<path d="M5.5,10.7c0-0.3,0-0.6,0-0.9c0.3,0,0.6,0,0.9,0c0,0.2,0,0.5,0,0.7c0,0,0,0.1,0,0.2C6.1,10.7,5.8,10.7,5.5,10.7z"/>
	<path d="M15.7,9c0,0.3,0,0.5,0,0.8c-0.1,0-0.7,0-0.8,0c0-0.3,0-0.5,0-0.8c0,0,0,0,0.1,0C15.2,9,15.4,9,15.7,9C15.7,9,15.7,9,15.7,9
		C15.7,9,15.7,9,15.7,9z"/>
	<path d="M48,9c0.3,0,0.6,0,0.8,0c0,0.3,0,0.5,0,0.8c-0.3,0-0.6,0-0.8,0c0,0,0,0,0,0C48,9.5,48,9.2,48,9C48,9,48,9,48,9z"/>
</g>
</svg>
